<svg width="204" height="143" viewBox="0 0 204 143" fill="none" xmlns="http://www.w3.org/2000/svg">
<path d="M100.668 69.4538V14.6667L167.206 42.0713L100.668 69.4538Z" fill="#FFDEDA"/>
<path d="M102.824 69.4538V14.6667L36.2859 42.0713L102.824 69.4538Z" fill="#FFEAE9"/>
<path d="M102.824 142.338V69.9324L36.9526 41.8833V114.288L102.824 142.338Z" fill="#FFDEDA"/>
<path d="M102.824 142.338V69.2658L167.049 41.8833V114.288L102.824 142.338Z" fill="#FFEAE9"/>
<path d="M2.36914 55.7374L66.7666 83.643L102.334 68.9644L36.6664 41.7441L2.36914 55.7374Z" fill="#FFF8F8"/>
<path d="M2.36914 28.65L66.7666 0.744465L102.334 15.423L36.6664 42.6433L2.36914 28.65Z" fill="#FFF8F8"/>
<path d="M201.299 55.7374L136.901 83.643L101.334 68.9644L167.002 41.7441L201.299 55.7374Z" fill="#FFF8F8"/>
<path d="M201.299 28.65L136.901 0.744465L101.334 15.423L168.002 42.6433L201.299 28.65Z" fill="#FFF8F8"/>
<path d="M201.633 55.7378L67.4715 1L2.00078 27.8323L35.8094 41.785L69.6181 55.7378L103.427 69.6906L137.235 83.6434L201.633 55.7378Z" stroke="#FDC8C3"/>
<path d="M2.36914 55.7378L136.53 1L202.001 27.8323L66.7666 83.6434L2.36914 55.7378Z" stroke="#FDC8C3"/>
</svg>
