<svg width="40" height="40" viewBox="0 0 40 40" fill="none" xmlns="http://www.w3.org/2000/svg">
<circle opacity="0.08" cx="20" cy="20" r="20" fill="#ED4233"/>
<mask id="path-2-inside-1" fill="white">
<path fill-rule="evenodd" clip-rule="evenodd" d="M20 30C20 30 12.5 22.5 12.5 17.5C12.5 13.3579 15.8579 10 20 10C24.1421 10 27.5 13.3579 27.5 17.5C27.5 22.5 20 30 20 30ZM20 19.1667C19.0795 19.1667 18.3333 18.4205 18.3333 17.5C18.3333 16.5795 19.0795 15.8333 20 15.8333C20.9205 15.8333 21.6667 16.5795 21.6667 17.5C21.6667 18.4205 20.9205 19.1667 20 19.1667Z"/>
</mask>
<path d="M20 30L21.0607 31.0607L20 32.1213L18.9393 31.0607L20 30ZM14 17.5C14 18.4101 14.3528 19.5703 15.0135 20.8917C15.662 22.1887 16.543 23.5156 17.45 24.725C18.3534 25.9295 19.2604 26.988 19.9431 27.7466C20.2837 28.125 20.5665 28.4267 20.7628 28.6323C20.8608 28.735 20.9371 28.8136 20.988 28.8656C21.0135 28.8916 21.0325 28.911 21.0448 28.9234C21.0509 28.9296 21.0554 28.934 21.058 28.9367C21.0594 28.938 21.0602 28.9389 21.0607 28.9394C21.0609 28.9396 21.061 28.9397 21.061 28.9397C21.061 28.9397 21.0609 28.9396 21.0609 28.9396C21.0608 28.9395 21.0607 28.9393 20 30C18.9393 31.0607 18.9391 31.0605 18.9389 31.0602C18.9388 31.0601 18.9385 31.0599 18.9383 31.0596C18.9378 31.0592 18.9373 31.0586 18.9366 31.0579C18.9352 31.0565 18.9334 31.0547 18.9311 31.0524C18.9266 31.0478 18.9202 31.0415 18.9122 31.0333C18.896 31.017 18.873 30.9936 18.8435 30.9635C18.7845 30.9032 18.6997 30.8158 18.5927 30.7037C18.3788 30.4796 18.0757 30.1563 17.7132 29.7534C16.9896 28.9495 16.0216 27.8205 15.05 26.525C14.082 25.2344 13.088 23.7488 12.3302 22.2333C11.5847 20.7422 11 19.0899 11 17.5H14ZM20 11.5C16.6863 11.5 14 14.1863 14 17.5H11C11 12.5294 15.0294 8.5 20 8.5V11.5ZM26 17.5C26 14.1863 23.3137 11.5 20 11.5V8.5C24.9706 8.5 29 12.5294 29 17.5H26ZM20 30C18.9393 28.9393 18.9392 28.9395 18.9391 28.9396C18.9391 28.9396 18.939 28.9397 18.939 28.9397C18.939 28.9397 18.9391 28.9396 18.9393 28.9394C18.9398 28.9389 18.9406 28.938 18.942 28.9367C18.9446 28.934 18.9491 28.9296 18.9552 28.9234C18.9675 28.911 18.9865 28.8916 19.012 28.8656C19.0629 28.8136 19.1392 28.735 19.2372 28.6323C19.4335 28.4267 19.7163 28.125 20.0569 27.7466C20.7396 26.988 21.6466 25.9295 22.55 24.725C23.457 23.5156 24.338 22.1887 24.9865 20.8917C25.6472 19.5703 26 18.4101 26 17.5H29C29 19.0899 28.4153 20.7422 27.6698 22.2333C26.912 23.7488 25.918 25.2344 24.95 26.525C23.9784 27.8205 23.0104 28.9495 22.2868 29.7534C21.9243 30.1563 21.6212 30.4796 21.4073 30.7037C21.3003 30.8158 21.2155 30.9032 21.1565 30.9635C21.127 30.9936 21.104 31.017 21.0878 31.0333C21.0798 31.0415 21.0734 31.0478 21.0689 31.0524C21.0666 31.0547 21.0648 31.0565 21.0634 31.0579C21.0627 31.0586 21.0622 31.0592 21.0617 31.0596C21.0615 31.0599 21.0612 31.0601 21.0611 31.0602C21.0609 31.0605 21.0607 31.0607 20 30ZM19.8333 17.5C19.8333 17.592 19.908 17.6667 20 17.6667V20.6667C18.2511 20.6667 16.8333 19.2489 16.8333 17.5H19.8333ZM20 17.3333C19.908 17.3333 19.8333 17.408 19.8333 17.5H16.8333C16.8333 15.7511 18.2511 14.3333 20 14.3333V17.3333ZM20.1667 17.5C20.1667 17.408 20.092 17.3333 20 17.3333V14.3333C21.7489 14.3333 23.1667 15.7511 23.1667 17.5H20.1667ZM20 17.6667C20.092 17.6667 20.1667 17.592 20.1667 17.5H23.1667C23.1667 19.2489 21.7489 20.6667 20 20.6667V17.6667Z" fill="#ED4233" mask="url(#path-2-inside-1)"/>
</svg>
