<svg width="40" height="40" viewBox="0 0 40 40" fill="none" xmlns="http://www.w3.org/2000/svg">
<circle opacity="0.08" cx="20" cy="20" r="20" fill="#ED4233"/>
<path d="M16.4931 24.2501L16.4907 24.2523L14.1467 26.4911C14.1537 26.5124 14.1656 26.5425 14.1853 26.5834C14.2883 26.7973 14.5235 27.0892 14.8797 27.4123C15.2247 27.7252 15.6368 28.0257 16.0332 28.265C16.4379 28.5094 16.7794 28.6615 16.9885 28.716C18.1322 28.9962 19.4244 28.7115 20.7519 27.9333C22.0782 27.1559 23.3771 25.9193 24.4762 24.4278C26.7013 21.4083 27.9422 17.5867 27.1928 14.7766C27.0536 14.2547 26.713 13.6705 26.2354 13.1233C25.761 12.5799 25.1893 12.1167 24.6438 11.8205C24.0722 11.5102 23.6492 11.4462 23.4195 11.4991C23.3262 11.5205 23.2621 11.5605 23.2071 11.6291C23.145 11.7064 23.064 11.8599 23.0211 12.1506L23.0212 12.1506L23.0201 12.1573L22.5214 15.3381C22.4984 15.6187 22.5577 15.7705 22.6187 15.8673C22.6921 15.9839 22.815 16.0946 23.0198 16.2249C23.1131 16.2843 23.2091 16.3391 23.3199 16.4024C23.331 16.4088 23.3423 16.4152 23.3537 16.4217C23.4709 16.4888 23.6104 16.5691 23.7411 16.6586C23.9901 16.8292 24.3443 17.1225 24.4564 17.6173C24.5012 17.8119 24.4895 18.0058 24.4726 18.1469C24.454 18.3017 24.4196 18.4644 24.379 18.6224C24.2976 18.939 24.177 19.2923 24.0515 19.6253C23.8007 20.2905 23.5035 20.9441 23.3777 21.1922L23.377 21.1936C23.1082 21.7206 22.5497 22.5454 21.94 23.302C21.3478 24.0369 20.6068 24.8353 19.9544 25.2004L19.9519 25.2018C19.3641 25.5278 18.7785 25.3071 18.4686 25.1501C18.2959 25.0626 18.1413 24.961 18.0227 24.8793C17.9613 24.8371 17.9164 24.8053 17.8801 24.7797C17.8327 24.7461 17.8002 24.7232 17.7654 24.7011C17.5567 24.5697 17.3596 24.4383 17.201 24.3325C17.1202 24.2786 17.0493 24.2313 16.992 24.1941C16.8613 24.1093 16.7826 24.0645 16.7352 24.0408C16.6898 24.0729 16.6131 24.1344 16.4931 24.2501ZM14.139 26.4636C14.14 26.454 14.1387 26.4481 14.1378 26.4475C14.137 26.4469 14.1364 26.4516 14.139 26.4636Z" stroke="#ED4233" stroke-width="1.5"/>
</svg>
