<svg width="40" height="40" viewBox="0 0 40 40" fill="none" xmlns="http://www.w3.org/2000/svg">
<path d="M0.166238 19.82C0.164994 23.3128 1.07765 26.7229 2.81302 29.7291L0 40L10.5106 37.244C13.4065 38.8221 16.667 39.6551 19.9852 39.6562H19.9938C30.9212 39.6562 39.8156 30.7642 39.8204 19.8356C39.8224 14.5393 37.7619 9.55997 34.0183 5.81311C30.2753 2.06678 25.2974 0.00248646 19.9929 0C9.06491 0 0.170479 8.89087 0.165743 19.8201L0.166238 19.82ZM19.9935 39.6561H19.9937H19.9935C19.9933 39.6561 19.9931 39.6561 19.9935 39.6561Z" fill="url(#paint0_linear)"/>
<path fill-rule="evenodd" clip-rule="evenodd" d="M14.8654 11.23C14.4809 10.3753 14.0763 10.3582 13.7106 10.3432C13.4113 10.3305 13.0691 10.3313 12.7272 10.3313C12.3849 10.3313 11.8289 10.4598 11.3588 10.9733C10.8883 11.4868 9.5625 12.7283 9.5625 15.253C9.5625 17.778 11.4017 20.2178 11.6579 20.5605C11.9146 20.9026 15.2081 26.2496 20.4238 28.3064C24.7589 30.0159 25.6411 29.6759 26.582 29.5902C27.5229 29.5048 29.6182 28.3492 30.0457 27.1509C30.4735 25.9527 30.4735 24.9256 30.3452 24.7111C30.217 24.4972 29.8747 24.3688 29.3615 24.1123C28.8482 23.8557 26.3253 22.6141 25.855 22.4428C25.3844 22.2718 25.0423 22.1863 24.7 22.7001C24.3579 23.2132 23.3751 24.3688 23.0756 24.7111C22.7763 25.054 22.4768 25.0969 21.9637 24.8402C21.4503 24.5827 19.7975 24.0413 17.8368 22.2933C16.3112 20.9331 15.2813 19.2533 14.9818 18.7395C14.6825 18.2263 14.9498 17.9484 15.2071 17.6925C15.4377 17.4626 15.7205 17.0933 15.9772 16.7938C16.2332 16.4941 16.3186 16.2803 16.4897 15.9379C16.661 15.5954 16.5753 15.2957 16.4471 15.039C16.3186 14.7824 15.3214 12.2446 14.865 11.2298" fill="white"/>
<defs>
<linearGradient id="paint0_linear" x1="19.9104" y1="39.9959" x2="19.9104" y2="-0.00420333" gradientUnits="userSpaceOnUse">
<stop stop-color="#20B038"/>
<stop offset="1" stop-color="#60D66A"/>
</linearGradient>
</defs>
</svg>
